<?xml version="1.0" standalone="no"?>
<svg viewBox="0 0 200 200" xmlns="http://www.w3.org/2000/svg">
  <path fill="#FF0066" d="M31.7,-50.2C44.9,-40.7,62.2,-38.5,70.3,-29.5C78.3,-20.5,77.2,-4.8,70.4,6.9C63.7,18.6,51.4,26.2,42.6,37.7C33.9,49.3,28.7,64.8,18.5,71.8C8.3,78.8,-6.9,77.2,-23.1,74.5C-39.3,71.7,-56.5,67.7,-69.2,57.5C-82,47.2,-90.5,30.7,-87.9,15.7C-85.4,0.6,-72,-13.1,-60.2,-22.8C-48.4,-32.5,-38.4,-38.3,-28.6,-49.3C-18.9,-60.3,-9.4,-76.6,-0.1,-76.4C9.2,-76.2,18.4,-59.6,31.7,-50.2Z" transform="translate(100 100)" />
</svg>
